<svg width="24" height="24" viewBox="0 0 24 24" fill="none" xmlns="http://www.w3.org/2000/svg">
<path opacity="0.5" d="M9.37491 8.25997C9.4721 8.24349 9.57158 8.24633 9.66767 8.26833C9.76375 8.29032 9.85456 8.33105 9.9349 8.38816C10.0152 8.44528 10.0835 8.51768 10.1359 8.60121C10.1882 8.68474 10.2236 8.77777 10.2399 8.87497L10.7679 11.993C10.8011 12.1892 10.7549 12.3906 10.6396 12.5528C10.5242 12.7151 10.3492 12.8248 10.1529 12.858C9.95665 12.8911 9.75526 12.845 9.59304 12.7296C9.43082 12.6143 9.32106 12.4392 9.28791 12.243L8.76091 9.12497C8.7279 8.929 8.77402 8.72793 8.88914 8.56593C9.00427 8.40393 9.17898 8.29325 9.37491 8.25997ZM14.7899 8.87497C14.8031 8.77503 14.8362 8.67877 14.8874 8.59194C14.9387 8.50511 15.0068 8.42949 15.0879 8.36961C15.169 8.30972 15.2613 8.26679 15.3594 8.24339C15.4574 8.21999 15.5592 8.21659 15.6586 8.2334C15.758 8.25022 15.8529 8.28689 15.9378 8.34124C16.0227 8.39559 16.0958 8.46649 16.1527 8.54971C16.2096 8.63293 16.2491 8.72677 16.2689 8.82561C16.2887 8.92445 16.2884 9.02627 16.2679 9.12497L15.7399 12.243C15.7235 12.3402 15.6881 12.4331 15.6357 12.5166C15.5834 12.6001 15.5151 12.6725 15.4348 12.7296C15.3545 12.7867 15.2637 12.8275 15.1676 12.8495C15.0716 12.8715 14.9721 12.8744 14.8749 12.858C14.7777 12.8416 14.6847 12.8062 14.6012 12.7538C14.5177 12.7015 14.4454 12.6332 14.3883 12.5528C14.3312 12.4725 14.2904 12.3817 14.2684 12.2857C14.2464 12.1896 14.2435 12.0902 14.2599 11.993L14.7899 8.87497Z" fill="#00B460"/>
<path fill-rule="evenodd" clip-rule="evenodd" d="M2.24902 2.29202C2.06125 2.22598 1.85493 2.23724 1.67546 2.32332C1.49599 2.4094 1.35806 2.56325 1.29202 2.75102C1.22598 2.9388 1.23724 3.14511 1.32332 3.32458C1.4094 3.50406 1.56325 3.64198 1.75102 3.70802L2.01302 3.79902C2.68002 4.03402 3.11902 4.18902 3.44202 4.34802C3.74502 4.49702 3.87902 4.61802 3.96702 4.74602C4.05702 4.87802 4.12702 5.06002 4.16702 5.42302C4.20702 5.80302 4.20802 6.29802 4.20802 7.03802V9.76002C4.20802 11.213 4.22202 12.26 4.35902 13.06C4.50502 13.914 4.79702 14.526 5.34402 15.102C5.93802 15.729 6.69002 16.002 7.58702 16.128C8.44502 16.25 9.53502 16.25 10.88 16.25H16.286C17.028 16.25 17.652 16.25 18.156 16.188C18.693 16.123 19.181 15.979 19.608 15.632C20.034 15.284 20.273 14.835 20.445 14.323C20.608 13.841 20.734 13.23 20.884 12.503L21.392 10.034L21.394 10.029L21.404 9.97702C21.569 9.15202 21.707 8.45802 21.742 7.90002C21.778 7.31402 21.711 6.73602 21.329 6.24002C21.094 5.93402 20.764 5.76102 20.463 5.65602C20.1379 5.54896 19.8018 5.47852 19.461 5.44602C18.774 5.37002 17.939 5.37002 17.121 5.37002H5.66702L5.65702 5.26202C5.60302 4.76502 5.48702 4.31202 5.20402 3.90002C4.92002 3.48402 4.54202 3.21802 4.10202 3.00102C3.69002 2.79902 3.16602 2.61502 2.54902 2.39802L2.24902 2.29202ZM5.70902 6.87002H17.089C17.945 6.87002 18.699 6.87102 19.294 6.93702C19.59 6.97102 19.811 7.01702 19.966 7.07102C20.029 7.08985 20.0885 7.11891 20.142 7.15702C20.204 7.23902 20.27 7.38702 20.244 7.80802C20.217 8.25202 20.101 8.84402 19.923 9.73402V9.73602L19.423 12.156C19.263 12.939 19.153 13.459 19.024 13.844C18.901 14.21 18.785 14.367 18.66 14.469C18.535 14.571 18.357 14.653 17.975 14.699C17.571 14.749 17.04 14.75 16.241 14.75H10.938C9.52102 14.75 8.53802 14.748 7.79802 14.643C7.08202 14.542 6.70502 14.358 6.43202 14.07C6.11202 13.732 5.93902 13.402 5.83702 12.807C5.72702 12.157 5.70802 11.249 5.70802 9.76002L5.70902 6.87002ZM7.50002 21.75C6.90329 21.75 6.33099 21.513 5.90903 21.091C5.48707 20.6691 5.25002 20.0968 5.25002 19.5C5.25002 18.9033 5.48707 18.331 5.90903 17.909C6.33099 17.4871 6.90329 17.25 7.50002 17.25C8.09676 17.25 8.66905 17.4871 9.09101 17.909C9.51297 18.331 9.75002 18.9033 9.75002 19.5C9.75002 20.0968 9.51297 20.6691 9.09101 21.091C8.66905 21.513 8.09676 21.75 7.50002 21.75ZM6.75002 19.5C6.75002 19.6989 6.82904 19.8897 6.96969 20.0304C7.11034 20.171 7.30111 20.25 7.50002 20.25C7.69893 20.25 7.8897 20.171 8.03035 20.0304C8.171 19.8897 8.25002 19.6989 8.25002 19.5C8.25002 19.3011 8.171 19.1103 8.03035 18.9697C7.8897 18.829 7.69893 18.75 7.50002 18.75C7.30111 18.75 7.11034 18.829 6.96969 18.9697C6.82904 19.1103 6.75002 19.3011 6.75002 19.5ZM16.5 21.75C15.9033 21.75 15.331 21.513 14.909 21.091C14.4871 20.6691 14.25 20.0968 14.25 19.5C14.25 18.9033 14.4871 18.331 14.909 17.909C15.331 17.4871 15.9033 17.25 16.5 17.25C17.0968 17.25 17.6691 17.4871 18.091 17.909C18.513 18.331 18.75 18.9033 18.75 19.5C18.75 20.0968 18.513 20.6691 18.091 21.091C17.6691 21.513 17.0968 21.75 16.5 21.75ZM15.75 19.5C15.75 19.6989 15.829 19.8897 15.9697 20.0304C16.1103 20.171 16.3011 20.25 16.5 20.25C16.6989 20.25 16.8897 20.171 17.0304 20.0304C17.171 19.8897 17.25 19.6989 17.25 19.5C17.25 19.3011 17.171 19.1103 17.0304 18.9697C16.8897 18.829 16.6989 18.75 16.5 18.75C16.3011 18.75 16.1103 18.829 15.9697 18.9697C15.829 19.1103 15.75 19.3011 15.75 19.5Z" fill="#00B460"/>
</svg>
