<svg width="20" height="20" viewBox="0 0 20 20" fill="none" xmlns="http://www.w3.org/2000/svg">
<path d="M1.63674 14.205C0.778738 10.773 0.349738 9.058 1.25074 7.904C2.15174 6.75 3.92074 6.75 7.45774 6.75H12.0877C15.6257 6.75 17.3937 6.75 18.2947 7.904C19.1957 9.058 18.7667 10.774 17.9087 14.205C17.3627 16.388 17.0907 17.479 16.2767 18.115C15.4627 18.75 14.3377 18.75 12.0877 18.75H7.45774C5.20774 18.75 4.08274 18.75 3.26874 18.115C2.45474 17.479 2.18174 16.388 1.63674 14.205Z" stroke="black" stroke-width="1.5"/>
<path opacity="0.5" d="M17.2729 7.25L16.563 4.645C16.289 3.64 16.1519 3.138 15.8709 2.759C15.5908 2.38246 15.2103 2.0924 14.7729 1.922C14.3329 1.75 13.8129 1.75 12.7729 1.75M2.27295 7.25L2.98295 4.645C3.25695 3.64 3.39395 3.138 3.67495 2.759C3.95513 2.38246 4.33564 2.0924 4.77295 1.922C5.21295 1.75 5.73295 1.75 6.77295 1.75" stroke="black" stroke-width="1.5"/>
<path d="M6.77295 1.75C6.77295 1.48478 6.87831 1.23043 7.06584 1.04289C7.25338 0.855357 7.50773 0.75 7.77295 0.75H11.7729C12.0382 0.75 12.2925 0.855357 12.4801 1.04289C12.6676 1.23043 12.7729 1.48478 12.7729 1.75C12.7729 2.01522 12.6676 2.26957 12.4801 2.45711C12.2925 2.64464 12.0382 2.75 11.7729 2.75H7.77295C7.50773 2.75 7.25338 2.64464 7.06584 2.45711C6.87831 2.26957 6.77295 2.01522 6.77295 1.75Z" stroke="black" stroke-width="1.5"/>
<path opacity="0.5" d="M5.77295 10.75V14.75M13.7729 10.75V14.75M9.77295 10.75V14.75" stroke="black" stroke-width="1.5" stroke-linecap="round" stroke-linejoin="round"/>
</svg>
