<svg width="16" height="16" viewBox="0 0 16 16" fill="none" xmlns="http://www.w3.org/2000/svg">
<rect width="16" height="16" rx="4" fill="#00B460"/>
<path d="M5.67578 1.78906C5.92038 1.80861 6.13669 1.92678 6.30469 2.10938L6.54688 2.375C6.5621 2.39156 6.5734 2.39614 6.57812 2.39844C6.58147 2.39987 6.59306 2.40671 6.61719 2.40625L6.97656 2.39844L7.21875 2.41797C7.30045 2.43602 7.3822 2.46713 7.46094 2.51172C7.62101 2.60241 7.73394 2.73712 7.80859 2.88672L7.88281 3.03516L7.95703 3.17969C7.99916 3.26447 8.05226 3.32974 8.11719 3.38281L8.23828 3.48438L8.35938 3.58203C8.62731 3.80091 8.73042 4.11341 8.6875 4.4375L8.66797 4.60547L8.64453 4.77344V4.78125C8.64624 4.78465 8.6526 4.79664 8.66797 4.8125L8.79297 4.94141C8.83533 4.91143 8.87594 4.87708 8.92188 4.85156L9.07031 4.76953L9.18359 4.70312L9.1875 4.53125V4.34766L9.22656 4.07812C9.2544 3.98727 9.29865 3.89606 9.36719 3.8125C9.50765 3.64202 9.69814 3.56393 9.87109 3.53516L10.0469 3.50391L10.2227 3.47656C10.326 3.45947 10.3846 3.4268 10.418 3.39844L10.6445 3.20312C10.7324 3.12833 10.8298 3.03095 10.9336 2.90625L11.0547 2.76172L11.1719 2.62109L11.3711 2.4375C11.4481 2.38577 11.5364 2.34394 11.6367 2.32031C11.7377 2.29673 11.8372 2.29611 11.9297 2.30859L12.1914 2.38281L12.3594 2.46094L12.5273 2.53516C12.8302 2.67243 13.0425 2.9217 13.1172 3.25391L13.1953 3.59766C13.2179 3.69768 13.2499 3.75518 13.2812 3.78906L13.3867 3.89844L13.4883 4.00781C13.6425 4.1738 13.7522 4.36872 13.8164 4.58594L13.9023 4.875C13.9611 5.07447 13.9848 5.28069 13.9727 5.48828L13.9648 5.64062L13.9531 5.78906C13.9434 5.95283 13.9289 6.11626 13.9062 6.27344L13.8867 6.41406L13.8633 6.55859C13.8339 6.76083 13.7702 6.95312 13.6719 7.13281L13.5312 7.39062C13.5117 7.42635 13.4952 7.4804 13.5 7.57031L13.5156 7.90625C13.5303 8.1791 13.4656 8.44553 13.2969 8.67188L13.2031 8.79297L13.1133 8.91797C13.0614 8.98753 13.0199 9.06435 12.9961 9.15625L12.918 9.46094C12.8478 9.73224 12.6915 9.95745 12.4648 10.1172L12.1992 10.3047C12.1295 10.3538 12.0852 10.4032 12.0586 10.457L11.9258 10.7305C11.8498 10.8847 11.7642 11.0335 11.668 11.1758L11.4961 11.4258C11.415 11.5455 11.3355 11.6717 11.2539 11.8008L11.168 11.9336L11.0859 12.0664C11.0344 12.148 10.9695 12.2358 10.8945 12.3086C10.8347 12.3666 10.6837 12.4996 10.457 12.5H10.1836L10.1719 12.4883C10.1055 12.4749 10.0393 12.4479 9.98047 12.4062C9.75634 12.2464 9.70418 11.9359 9.86328 11.7109L9.91797 11.6289L10.2773 11.125L10.4062 11.2656C10.4929 11.1285 10.581 10.9957 10.668 10.8672L10.8398 10.6172C10.9109 10.5123 10.9751 10.403 11.0312 10.2891L11.1641 10.0156C11.2704 9.80029 11.4259 9.62191 11.6211 9.48438L11.8867 9.29688C11.9258 9.26936 11.9403 9.24543 11.9492 9.21094L11.9883 9.05859L12.0312 8.90625C12.0864 8.69332 12.1777 8.49629 12.3086 8.32031L12.4023 8.19531L12.4922 8.07422C12.507 8.05439 12.523 8.0253 12.5195 7.96094L12.5117 7.79297L12.5 7.625C12.4867 7.37773 12.5309 7.13219 12.6523 6.91016L12.793 6.65234C12.8354 6.57482 12.8631 6.49653 12.875 6.41406L12.8945 6.26953L12.918 6.12891C12.9365 6.00073 12.9489 5.86745 12.957 5.73047L12.9648 5.58203L12.9727 5.42969C12.9781 5.33728 12.9674 5.24871 12.9414 5.16016L12.9023 5.01562L12.8594 4.87109C12.8386 4.80067 12.8027 4.7399 12.7539 4.6875L12.5508 4.46875C12.3789 4.28382 12.2733 4.05896 12.2188 3.81641L12.1406 3.47266C12.1386 3.46365 12.137 3.45764 12.1367 3.45703V3.46094C12.1337 3.45873 12.126 3.45107 12.1133 3.44531L11.9453 3.37109L11.8711 3.33594L11.8203 3.40234L11.7031 3.54297C11.5704 3.70264 11.4336 3.84518 11.293 3.96484L11.0664 4.16016C10.8709 4.32651 10.6353 4.41982 10.3867 4.46094L10.2109 4.49219H10.1875V4.53906L10.1836 4.72656C10.1808 5.07059 10.0269 5.38254 9.70312 5.5625L9.40625 5.72656C9.33532 5.76611 9.30357 5.80764 9.28516 5.84375L9.23438 5.9375L9.23047 6.02344L9.21875 6.17188C9.21008 6.29666 9.21095 6.42618 9.21875 6.55859L9.23438 6.86328C9.24306 7.01075 9.25593 7.15944 9.26953 7.30469L9.28125 7.45312L9.29688 7.60547C9.32087 7.86259 9.26494 8.10927 9.14062 8.33203L9.0625 8.46875L8.98438 8.60938C8.94109 8.68693 8.92172 8.75945 8.91797 8.82812L8.90234 9.125C8.8862 9.42066 8.7441 9.70101 8.45312 9.85938L8.33984 9.92188L8.22266 9.98438C8.16835 10.0139 8.0797 10.0562 7.97266 10.0703C7.85564 10.0853 7.6779 10.0672 7.52734 9.93359C7.39102 9.81161 7.35484 9.65779 7.34375 9.57422C7.33232 9.48637 7.33866 9.40362 7.34766 9.34375L7.37109 9.19922L7.39062 9.05078C7.39618 9.01285 7.39512 8.9591 7.35938 8.87891L7.21875 8.56641C7.08998 8.28037 7.08661 7.96467 7.25 7.67578L7.32812 7.53906L7.40234 7.40234C7.49525 7.23817 7.60508 7.08298 7.72656 6.94141L7.82422 6.82812L7.92578 6.71094C7.9666 6.66337 7.99456 6.60884 8.00781 6.53906L8.0625 6.22656C8.09203 6.06867 8.14387 5.91868 8.20703 5.77344L8.20312 5.76953L8.07812 5.64062L7.94922 5.50781C7.72527 5.27668 7.60793 4.9746 7.65234 4.64062L7.67578 4.47266L7.69141 4.33203L7.60547 4.25781L7.48438 4.16016C7.30531 4.01387 7.16167 3.8325 7.05859 3.625L6.98828 3.48047L6.94531 3.39844L6.82031 3.40234L6.64062 3.40625C6.31753 3.41358 6.03064 3.28794 5.8125 3.05078L5.69141 2.91797L5.57422 2.79297L5.44922 2.81641L5.28906 2.84766C5.15834 2.87256 5.03436 2.90841 4.92188 2.95312L4.77734 3.01172L4.63672 3.06641C4.53282 3.10771 4.43929 3.15836 4.35938 3.21875L4.125 3.39844C3.98448 3.50453 3.83069 3.60256 3.66406 3.69141L3.51562 3.76953L3.37109 3.84766C3.36194 3.85254 3.35489 3.85679 3.35156 3.85938L3.34766 3.86328H3.34375L3.26172 4.19141C3.21344 4.38494 3.14339 4.57008 3.05078 4.74609L2.97656 4.88672L2.91016 5.00781C2.91158 5.01124 2.91542 5.01449 2.91797 5.01953L2.99609 5.17969L3.07812 5.33984C3.22338 5.625 3.2441 5.94691 3.09766 6.25L3.02734 6.39844L2.95312 6.54688C2.91099 6.63458 2.8921 6.71611 2.89062 6.79297V6.94531L2.88672 7.10156C2.88547 7.17102 2.89899 7.23684 2.93359 7.30469L3.00781 7.44531L3.07812 7.58594C3.16543 7.75629 3.23362 7.93206 3.28125 8.11328L3.32031 8.25781L3.35938 8.40625C3.40731 8.5897 3.43251 8.77899 3.4375 8.97266L3.44141 9.13281L3.44531 9.28906C3.4469 9.35113 3.46185 9.40305 3.49609 9.45312L3.67578 9.71094C3.72527 9.78322 3.78739 9.84364 3.86328 9.89062L3.99609 9.97266L4.13281 10.0547C4.34679 10.1871 4.51153 10.3736 4.625 10.5977L4.69922 10.7383L4.76953 10.8828C4.75226 10.8488 4.73592 10.8429 4.75781 10.8555C4.78298 10.8699 4.83861 10.8934 4.94141 10.9141L5.21484 10.9688L5.39844 11.0078L5.51172 11.1562L5.57422 11.2344C5.74251 11.4533 5.69941 11.7692 5.48047 11.9375C5.29177 12.0815 5.0386 12.0637 4.86328 11.918L4.74609 11.8945C4.42966 11.8309 4.05844 11.6889 3.87891 11.3359L3.80469 11.1914L3.73438 11.0469C3.70274 10.9845 3.66092 10.9406 3.60547 10.9062L3.46875 10.8242L3.33594 10.7383C3.14283 10.6186 2.97993 10.4647 2.85156 10.2773L2.76172 10.1484L2.67188 10.0156C2.52899 9.80637 2.45204 9.56954 2.44531 9.31641L2.44141 9.15625L2.4375 9C2.43438 8.8782 2.41833 8.76191 2.39062 8.65625L2.35156 8.51172L2.31641 8.36719C2.2881 8.25942 2.24347 8.15225 2.1875 8.04297L2.04688 7.76172C1.93821 7.5497 1.88217 7.32058 1.88672 7.08203L1.89062 6.92578L1.89453 6.77344C1.89898 6.54211 1.95373 6.31832 2.05469 6.10938L2.125 5.96094L2.19922 5.81641C2.19789 5.81228 2.19239 5.8066 2.1875 5.79688L2.02344 5.47656C1.87903 5.19308 1.85521 4.8671 2.01562 4.5625L2.09375 4.42188L2.16797 4.28125C2.22303 4.17655 2.26394 4.06574 2.29297 3.94922L2.37109 3.63672C2.44543 3.33798 2.63201 3.10699 2.89844 2.96484L3.04688 2.88672L3.19141 2.80859C3.31786 2.74118 3.42961 2.6724 3.52344 2.60156L3.75781 2.42188C3.9127 2.30483 4.08255 2.20951 4.26562 2.13672L4.41016 2.08203L4.55469 2.02344C4.7289 1.95428 4.91242 1.90322 5.10156 1.86719L5.42188 1.80469L5.67578 1.78906Z" fill="white"/>
<path d="M7.62305 11.6797C7.74465 11.6693 7.86246 11.6904 7.97266 11.7422L8.04492 11.7754L8.11719 11.8105C8.17138 11.836 8.22468 11.8543 8.27734 11.8652L8.35156 11.8789L8.42383 11.8945C8.49653 11.9095 8.57402 11.9255 8.6543 11.9414L8.73438 11.957L8.81641 11.9727C8.9405 11.9974 9.04149 12.0638 9.10938 12.1621L9.16602 12.2695L9.19531 12.3477L9.22266 12.4238C9.27242 12.557 9.27633 12.7119 9.18359 12.8496L9.14453 12.9062L9.10742 12.9609C9.06707 13.0205 9.02062 13.0852 8.96875 13.1543L8.91992 13.2207L8.90234 13.2402L8.9043 13.2422C8.90658 13.2447 8.91112 13.2489 8.91797 13.2539L8.99414 13.3086L9.06836 13.3652C9.13492 13.4138 9.21834 13.4978 9.23242 13.627C9.24622 13.7564 9.18377 13.8583 9.12891 13.9199L9.06641 13.9902L9.00391 14.0586C8.90806 14.1662 8.78091 14.2438 8.625 14.2539L8.54883 14.2598L8.4707 14.2637C8.397 14.2684 8.32353 14.2762 8.25 14.2832L8.17188 14.2891L8.0957 14.2969C7.95237 14.3105 7.82027 14.2678 7.70898 14.1816L7.58008 14.084C7.52738 14.0432 7.48048 14.0138 7.43945 13.9941L7.31836 13.9355C7.26075 13.9079 7.15914 13.8429 7.13086 13.7109C7.10313 13.5801 7.16759 13.478 7.20703 13.4297L7.25 13.377L7.29297 13.3262L7.30664 13.3125C7.29318 13.3068 7.28025 13.2999 7.26758 13.2949L7.14258 13.2441C7.01143 13.192 6.92128 13.0923 6.86523 12.9746L6.83008 12.9043L6.79688 12.832C6.78567 12.8085 6.78044 12.783 6.77344 12.7578L6.66211 12.7891L6.56445 12.8164C6.43168 12.8518 6.29404 12.7732 6.25781 12.6406C6.22694 12.5267 6.28342 12.4134 6.38281 12.3594C6.41599 12.2114 6.49654 12.0137 6.70898 11.957L6.78125 11.9395L6.85547 11.9199C6.90936 11.9056 6.96257 11.8833 7.01562 11.8555L7.08398 11.8203L7.1543 11.7832C7.25209 11.7321 7.35693 11.701 7.4668 11.6914L7.62305 11.6797ZM8.33398 13.5L8.4668 13.7617L8.51562 13.7598L8.59375 13.7559C8.59506 13.7557 8.59679 13.7554 8.59961 13.7539C8.60436 13.7514 8.61569 13.7436 8.63086 13.7266L8.66406 13.6875L8.62305 13.6582C8.55373 13.6076 8.49948 13.5438 8.46094 13.4707C8.45612 13.4702 8.45017 13.4713 8.44531 13.4707L8.36914 13.4609L8.31055 13.4531L8.33398 13.5ZM7.31055 12.6035L7.26562 12.6562L7.28125 12.6895L7.31641 12.7598C7.32307 12.7737 7.32721 12.7803 7.32812 12.7812V12.7793L7.45312 12.8301C7.52341 12.858 7.5986 12.8922 7.67773 12.9316L7.82617 13.0059C7.85083 13.0181 7.86547 13.0171 7.87891 13.0137L7.95312 12.9941L8.0293 12.9746C8.09812 12.957 8.16811 12.9496 8.23828 12.9492C8.16949 12.8905 8.10636 12.8236 8.05273 12.748L8.00391 12.6797L7.99219 12.6621L7.95703 12.6758L7.87109 12.707C7.71072 12.7649 7.5481 12.7444 7.40625 12.6523L7.32812 12.6016L7.31641 12.5938L7.31055 12.6035ZM8.46094 12.459C8.49696 12.5098 8.53699 12.5516 8.57812 12.584L8.63867 12.6309L8.69531 12.6758L8.73047 12.625L8.75195 12.5918L8.72656 12.5215L8.70117 12.459L8.63867 12.4473L8.55664 12.4316C8.51052 12.4225 8.46565 12.4132 8.42188 12.4043L8.46094 12.459ZM7.59766 12.1816L7.59961 12.1836L7.67773 12.2324C7.68338 12.2361 7.68773 12.2396 7.68945 12.2402H7.69141C7.69266 12.2401 7.69579 12.2383 7.70117 12.2363L7.7832 12.2051L7.75977 12.1953C7.72769 12.1802 7.69815 12.1751 7.66602 12.1777L7.59766 12.1816Z" fill="white"/>
</svg>
