<svg
  viewBox="0 0 25 26"
  fill="currentColor"
  xmlns="http://www.w3.org/2000/svg"
>
  <path
    d="M7.57861 0.00341797C8.06781 0.0425075 8.50044 0.278849 8.83643 0.644043L9.3208 1.17529C9.35125 1.20842 9.37386 1.21757 9.3833 1.22217C9.39 1.22503 9.41318 1.23871 9.46143 1.23779L10.1802 1.22217L10.6646 1.26123C10.8279 1.29733 10.9914 1.35956 11.1489 1.44873C11.4691 1.63012 11.6949 1.89953 11.8442 2.19873L11.9927 2.49561L12.1411 2.78467C12.2254 2.95423 12.3316 3.08477 12.4614 3.19092L12.7036 3.39404L12.9458 3.58936C13.4817 4.02712 13.6879 4.65212 13.6021 5.30029L13.563 5.63623L13.5161 5.97217V5.98779C13.5195 5.9946 13.5323 6.01857 13.563 6.05029L13.813 6.30811C13.8977 6.24815 13.9789 6.17946 14.0708 6.12842L14.3677 5.96436L14.5942 5.83154L14.6021 5.48779V5.12061L14.6802 4.58154C14.7358 4.39984 14.8243 4.21741 14.9614 4.05029C15.2424 3.70934 15.6233 3.55315 15.9692 3.49561L16.3208 3.43311L16.6724 3.37842C16.8791 3.34422 16.9963 3.27889 17.063 3.22217L17.5161 2.83154C17.6919 2.68195 17.8867 2.48718 18.0942 2.23779L18.3364 1.94873L18.5708 1.66748L18.9692 1.30029C19.1232 1.19683 19.2999 1.11318 19.5005 1.06592C19.7024 1.01876 19.9015 1.01752 20.0864 1.04248L20.6099 1.19092L20.9458 1.34717L21.2817 1.49561C21.8874 1.77016 22.3121 2.26869 22.4614 2.93311L22.6177 3.62061C22.6629 3.82064 22.7268 3.93566 22.7896 4.00342L23.0005 4.22217L23.2036 4.44092C23.5121 4.7729 23.7314 5.16274 23.8599 5.59717L24.0317 6.17529C24.1492 6.57423 24.1967 6.98667 24.1724 7.40186L24.1567 7.70654L24.1333 8.00342C24.1139 8.33096 24.0849 8.65782 24.0396 8.97217L24.0005 9.25342L23.9536 9.54248C23.8948 9.94695 23.7674 10.3315 23.5708 10.6909L23.2896 11.2065C23.2505 11.278 23.2174 11.3861 23.2271 11.5659L23.2583 12.2378C23.2876 12.7835 23.1582 13.3164 22.8208 13.769L22.6333 14.0112L22.4536 14.2612C22.3499 14.4004 22.2668 14.554 22.2192 14.7378L22.063 15.3472C21.9227 15.8898 21.6101 16.3402 21.1567 16.6597L20.6255 17.0347C20.486 17.1329 20.3975 17.2317 20.3442 17.3394L20.0786 17.8862C19.9266 18.1948 19.7555 18.4922 19.563 18.7769L19.2192 19.2769C19.0571 19.5163 18.898 19.7686 18.7349 20.0269L18.563 20.2925L18.3989 20.5581C18.2959 20.7213 18.1661 20.8968 18.0161 21.0425C17.8965 21.1585 17.5944 21.4246 17.1411 21.4253H16.8442L16.7896 21.4019C16.5823 21.4067 16.3703 21.3667 16.188 21.2378C15.7397 20.9182 15.6354 20.297 15.9536 19.8472L16.0083 19.769L16.4614 19.1284L16.8364 19.269L16.8755 19.2222L17.0396 18.9565C17.2128 18.6823 17.389 18.4167 17.563 18.1597L17.9067 17.6597C18.0488 17.4499 18.1773 17.2314 18.2896 17.0034L18.5552 16.4565C18.7678 16.0259 19.0789 15.6691 19.4692 15.394L20.0005 15.019C20.0786 14.964 20.1077 14.9162 20.1255 14.8472L20.2036 14.5425L20.2896 14.2378C20.3998 13.8119 20.5825 13.4179 20.8442 13.0659L21.0317 12.8159L21.2114 12.5737C21.241 12.5341 21.273 12.4759 21.2661 12.3472L21.2505 12.0112L21.2271 11.6753C21.2005 11.1807 21.2888 10.6897 21.5317 10.2456L21.813 9.72998C21.8978 9.57494 21.9533 9.41835 21.9771 9.25342L22.0161 8.96436L22.063 8.68311C22.1 8.42675 22.1249 8.1602 22.1411 7.88623L22.1567 7.58936L22.1724 7.28467C22.1832 7.09985 22.1618 6.92271 22.1099 6.74561L22.0317 6.45654L21.9458 6.16748C21.9043 6.02662 21.8324 5.9051 21.7349 5.80029L21.3286 5.36279C20.9848 4.99292 20.7736 4.54321 20.6646 4.05811L20.5083 3.37061C20.5043 3.3526 20.5011 3.34057 20.5005 3.33936V3.34717C20.4945 3.34276 20.4791 3.32743 20.4536 3.31592L20.1177 3.16748L19.9692 3.09717L19.8677 3.22998L19.6333 3.51123C19.3678 3.83058 19.0943 4.11565 18.813 4.35498L18.3599 4.74561C17.9689 5.07831 17.4977 5.26494 17.0005 5.34717L16.6489 5.40967H16.6021V5.50342L16.5942 5.87842C16.5886 6.56648 16.2808 7.19037 15.6333 7.55029L15.0396 7.87842C14.8977 7.95752 14.8342 8.04057 14.7974 8.11279L14.6958 8.30029L14.688 8.47217L14.6646 8.76904C14.6472 9.01862 14.649 9.27765 14.6646 9.54248L14.6958 10.1519C14.7132 10.4468 14.7389 10.7442 14.7661 11.0347L14.7896 11.3315L14.8208 11.6362C14.8688 12.1505 14.7569 12.6438 14.5083 13.0894L14.3521 13.3628L14.1958 13.644C14.1092 13.7991 14.0705 13.9442 14.063 14.0815L14.0317 14.6753C13.9995 15.2666 13.7153 15.8273 13.1333 16.144L12.9067 16.269L12.6724 16.394C12.5638 16.4532 12.3865 16.5378 12.1724 16.5659C11.9383 16.5959 11.5829 16.5597 11.2817 16.2925C11.0091 16.0485 10.9367 15.7409 10.9146 15.5737C10.8917 15.398 10.9044 15.2325 10.9224 15.1128L10.9692 14.8237L11.0083 14.5269C11.0194 14.451 11.0173 14.3435 10.9458 14.1831L10.6646 13.5581C10.407 12.986 10.4003 12.3546 10.7271 11.7769L10.8833 11.5034L11.0317 11.23C11.2176 10.9016 11.4372 10.5912 11.6802 10.3081L11.8755 10.0815L12.0786 9.84717C12.1602 9.75204 12.2162 9.64298 12.2427 9.50342L12.3521 8.87842C12.4111 8.56264 12.5148 8.26266 12.6411 7.97217L12.6333 7.96436L12.3833 7.70654L12.1255 7.44092C11.6776 6.97864 11.4429 6.37448 11.5317 5.70654L11.5786 5.37061L11.6099 5.08936L11.438 4.94092L11.1958 4.74561C10.8377 4.45304 10.5504 4.0903 10.3442 3.67529L10.2036 3.38623L10.1177 3.22217L9.86768 3.22998L9.5083 3.23779C8.86212 3.25245 8.28832 3.00117 7.85205 2.52686L7.60986 2.26123L7.37549 2.01123L7.12549 2.05811L6.80518 2.12061C6.54373 2.17041 6.29576 2.24212 6.0708 2.33154L5.78174 2.44873L5.50049 2.55811C5.2927 2.64071 5.10563 2.742 4.9458 2.86279L4.47705 3.22217C4.19602 3.43435 3.88844 3.63042 3.55518 3.80811L3.2583 3.96436L2.96924 4.12061C2.95093 4.13037 2.93683 4.13887 2.93018 4.14404L2.92236 4.15186H2.91455L2.75049 4.80811C2.65393 5.19517 2.51384 5.56546 2.32861 5.91748L2.18018 6.19873L2.04736 6.44092C2.05022 6.44777 2.05789 6.45428 2.06299 6.46436L2.21924 6.78467L2.3833 7.10498C2.67382 7.67529 2.71526 8.31912 2.42236 8.92529L2.28174 9.22217L2.1333 9.51904C2.04902 9.69446 2.01126 9.85751 2.0083 10.0112V10.3159L2.00049 10.6284C1.99799 10.7673 2.02502 10.899 2.09424 11.0347L2.24268 11.3159L2.3833 11.5972C2.55792 11.9379 2.69429 12.2894 2.78955 12.6519L2.86768 12.9409L2.9458 13.2378C3.04166 13.6047 3.09207 13.9833 3.10205 14.3706L3.10986 14.6909L3.11768 15.0034C3.12085 15.1275 3.15075 15.2314 3.21924 15.3315L3.57861 15.8472C3.67758 15.9917 3.80182 16.1126 3.95361 16.2065L4.21924 16.3706L4.49268 16.5347C4.92063 16.7996 5.25011 17.1724 5.47705 17.6206L5.62549 17.9019L5.74268 18.144C5.74838 18.148 5.75592 18.1536 5.76611 18.1597C5.83317 18.1998 5.96382 18.2602 6.18799 18.3159L6.7583 18.4565L7.10205 18.5425L7.31299 18.8159L7.37549 18.894C7.71206 19.3319 7.62586 19.9637 7.18799 20.3003C6.84005 20.5658 6.37726 20.5612 6.03174 20.3315L5.71143 20.2534C5.07667 20.096 4.33725 19.7899 3.98486 19.0972L3.83643 18.8081L3.6958 18.519C3.63252 18.3943 3.54889 18.3064 3.43799 18.2378L3.16455 18.0737L2.89893 17.9019C2.51272 17.6625 2.1869 17.3547 1.93018 16.98L1.75049 16.7222L1.5708 16.4565C1.28503 16.038 1.13113 15.5644 1.11768 15.0581L1.10986 14.7378L1.10205 14.4253C1.09582 14.1817 1.06371 13.9491 1.0083 13.7378L0.930176 13.4487L0.859863 13.1597C0.803254 12.9441 0.713999 12.7298 0.602051 12.5112L0.320801 11.9487C0.103461 11.5247 -0.00860087 11.0665 0.000488281 10.5894L0.00830078 10.2769L0.0161133 9.97217C0.0250121 9.50952 0.134504 9.06194 0.336426 8.64404L0.477051 8.34717L0.625488 8.05811C0.622839 8.04986 0.611824 8.03849 0.602051 8.01904L0.273926 7.37842C-0.014891 6.81145 -0.0625336 6.15949 0.258301 5.55029L0.414551 5.26904L0.562988 4.98779C0.673113 4.7784 0.754933 4.55677 0.812988 4.32373L0.969238 3.69873C1.11791 3.10125 1.49108 2.63928 2.02393 2.35498L2.3208 2.19873L2.60986 2.04248C2.86278 1.90766 3.08628 1.7701 3.27393 1.62842L3.74268 1.26904C4.05245 1.03494 4.39215 0.844321 4.7583 0.69873L5.04736 0.589355L5.33643 0.472168C5.68485 0.333856 6.05189 0.231727 6.43018 0.159668L7.0708 0.034668L7.57861 0.00341797Z"
    fill="currentColor"
  />
  <path d="M7.57861 0.00341797C8.06781 0.0425075 8.50044 0.278849 8.83643 0.644043L9.3208 1.17529C9.35125 1.20842 9.37386 1.21757 9.3833 1.22217C9.39 1.22503 9.41318 1.23871 9.46143 1.23779L10.1802 1.22217L10.6646 1.26123C10.8279 1.29733 10.9914 1.35956 11.1489 1.44873C11.4691 1.63012 11.6949 1.89953 11.8442 2.19873L11.9927 2.49561L12.1411 2.78467C12.2254 2.95423 12.3316 3.08477 12.4614 3.19092L12.7036 3.39404L12.9458 3.58936C13.4817 4.02712 13.6879 4.65212 13.6021 5.30029L13.563 5.63623L13.5161 5.97217V5.98779C13.5195 5.9946 13.5323 6.01857 13.563 6.05029L13.813 6.30811C13.8977 6.24815 13.9789 6.17946 14.0708 6.12842L14.3677 5.96436L14.5942 5.83154L14.6021 5.48779V5.12061L14.6802 4.58154C14.7358 4.39984 14.8243 4.21741 14.9614 4.05029C15.2424 3.70934 15.6233 3.55315 15.9692 3.49561L16.3208 3.43311L16.6724 3.37842C16.8791 3.34422 16.9963 3.27889 17.063 3.22217L17.5161 2.83154C17.6919 2.68195 17.8867 2.48718 18.0942 2.23779L18.3364 1.94873L18.5708 1.66748L18.9692 1.30029C19.1232 1.19683 19.2999 1.11318 19.5005 1.06592C19.7024 1.01876 19.9015 1.01752 20.0864 1.04248L20.6099 1.19092L20.9458 1.34717L21.2817 1.49561C21.8874 1.77016 22.3121 2.26869 22.4614 2.93311L22.6177 3.62061C22.6629 3.82064 22.7268 3.93566 22.7896 4.00342L23.0005 4.22217L23.2036 4.44092C23.5121 4.7729 23.7314 5.16274 23.8599 5.59717L24.0317 6.17529C24.1492 6.57423 24.1967 6.98667 24.1724 7.40186L24.1567 7.70654L24.1333 8.00342C24.1139 8.33096 24.0849 8.65782 24.0396 8.97217L24.0005 9.25342L23.9536 9.54248C23.8948 9.94695 23.7674 10.3315 23.5708 10.6909L23.2896 11.2065C23.2505 11.278 23.2174 11.3861 23.2271 11.5659L23.2583 12.2378C23.2876 12.7835 23.1582 13.3164 22.8208 13.769L22.6333 14.0112L22.4536 14.2612C22.3499 14.4004 22.2668 14.554 22.2192 14.7378L22.063 15.3472C21.9227 15.8898 21.6101 16.3402 21.1567 16.6597L20.6255 17.0347C20.486 17.1329 20.3975 17.2317 20.3442 17.3394L20.0786 17.8862C19.9266 18.1948 19.7555 18.4922 19.563 18.7769L19.2192 19.2769C19.0571 19.5163 18.898 19.7686 18.7349 20.0269L18.563 20.2925L18.3989 20.5581C18.2959 20.7213 18.1661 20.8968 18.0161 21.0425C17.8965 21.1585 17.5944 21.4246 17.1411 21.4253H16.8442L16.7896 21.4019C16.5823 21.4067 16.3703 21.3667 16.188 21.2378C15.7397 20.9182 15.6354 20.297 15.9536 19.8472L16.0083 19.769L16.4614 19.1284L16.8364 19.269L16.8755 19.2222L17.0396 18.9565C17.2128 18.6823 17.389 18.4167 17.563 18.1597L17.9067 17.6597C18.0488 17.4499 18.1773 17.2314 18.2896 17.0034L18.5552 16.4565C18.7678 16.0259 19.0789 15.6691 19.4692 15.394L20.0005 15.019C20.0786 14.964 20.1077 14.9162 20.1255 14.8472L20.2036 14.5425L20.2896 14.2378C20.3998 13.8119 20.5825 13.4179 20.8442 13.0659L21.0317 12.8159L21.2114 12.5737C21.241 12.5341 21.273 12.4759 21.2661 12.3472L21.2505 12.0112L21.2271 11.6753C21.2005 11.1807 21.2888 10.6897 21.5317 10.2456L21.813 9.72998C21.8978 9.57494 21.9533 9.41835 21.9771 9.25342L22.0161 8.96436L22.063 8.68311C22.1 8.42675 22.1249 8.1602 22.1411 7.88623L22.1567 7.58936L22.1724 7.28467C22.1832 7.09985 22.1618 6.92271 22.1099 6.74561L22.0317 6.45654L21.9458 6.16748C21.9043 6.02662 21.8324 5.9051 21.7349 5.80029L21.3286 5.36279C20.9848 4.99292 20.7736 4.54321 20.6646 4.05811L20.5083 3.37061C20.5043 3.3526 20.5011 3.34057 20.5005 3.33936V3.34717C20.4945 3.34276 20.4791 3.32743 20.4536 3.31592L20.1177 3.16748L19.9692 3.09717L19.8677 3.22998L19.6333 3.51123C19.3678 3.83058 19.0943 4.11565 18.813 4.35498L18.3599 4.74561C17.9689 5.07831 17.4977 5.26494 17.0005 5.34717L16.6489 5.40967H16.6021V5.50342L16.5942 5.87842C16.5886 6.56648 16.2808 7.19037 15.6333 7.55029L15.0396 7.87842C14.8977 7.95752 14.8342 8.04057 14.7974 8.11279L14.6958 8.30029L14.688 8.47217L14.6646 8.76904C14.6472 9.01862 14.649 9.27765 14.6646 9.54248L14.6958 10.1519C14.7132 10.4468 14.7389 10.7442 14.7661 11.0347L14.7896 11.3315L14.8208 11.6362C14.8688 12.1505 14.7569 12.6438 14.5083 13.0894L14.3521 13.3628L14.1958 13.644C14.1092 13.7991 14.0705 13.9442 14.063 14.0815L14.0317 14.6753C13.9995 15.2666 13.7153 15.8273 13.1333 16.144L12.9067 16.269L12.6724 16.394C12.5638 16.4532 12.3865 16.5378 12.1724 16.5659C11.9383 16.5959 11.5829 16.5597 11.2817 16.2925C11.0091 16.0485 10.9367 15.7409 10.9146 15.5737C10.8917 15.398 10.9044 15.2325 10.9224 15.1128L10.9692 14.8237L11.0083 14.5269C11.0194 14.451 11.0173 14.3435 10.9458 14.1831L10.6646 13.5581C10.407 12.986 10.4003 12.3546 10.7271 11.7769L10.8833 11.5034L11.0317 11.23C11.2176 10.9016 11.4372 10.5912 11.6802 10.3081L11.8755 10.0815L12.0786 9.84717C12.1602 9.75204 12.2162 9.64298 12.2427 9.50342L12.3521 8.87842C12.4111 8.56264 12.5148 8.26266 12.6411 7.97217L12.6333 7.96436L12.3833 7.70654L12.1255 7.44092C11.6776 6.97864 11.4429 6.37448 11.5317 5.70654L11.5786 5.37061L11.6099 5.08936L11.438 4.94092L11.1958 4.74561C10.8377 4.45304 10.5504 4.0903 10.3442 3.67529L10.2036 3.38623L10.1177 3.22217L9.86768 3.22998L9.5083 3.23779C8.86212 3.25245 8.28832 3.00117 7.85205 2.52686L7.60986 2.26123L7.37549 2.01123L7.12549 2.05811L6.80518 2.12061C6.54373 2.17041 6.29576 2.24212 6.0708 2.33154L5.78174 2.44873L5.50049 2.55811C5.2927 2.64071 5.10563 2.742 4.9458 2.86279L4.47705 3.22217C4.19602 3.43435 3.88844 3.63042 3.55518 3.80811L3.2583 3.96436L2.96924 4.12061C2.95093 4.13037 2.93683 4.13887 2.93018 4.14404L2.92236 4.15186H2.91455L2.75049 4.80811C2.65393 5.19517 2.51384 5.56546 2.32861 5.91748L2.18018 6.19873L2.04736 6.44092C2.05022 6.44777 2.05789 6.45428 2.06299 6.46436L2.21924 6.78467L2.3833 7.10498C2.67382 7.67529 2.71526 8.31912 2.42236 8.92529L2.28174 9.22217L2.1333 9.51904C2.04902 9.69446 2.01126 9.85751 2.0083 10.0112V10.3159L2.00049 10.6284C1.99799 10.7673 2.02502 10.899 2.09424 11.0347L2.24268 11.3159L2.3833 11.5972C2.55792 11.9379 2.69429 12.2894 2.78955 12.6519L2.86768 12.9409L2.9458 13.2378C3.04166 13.6047 3.09207 13.9833 3.10205 14.3706L3.10986 14.6909L3.11768 15.0034C3.12085 15.1275 3.15075 15.2314 3.21924 15.3315L3.57861 15.8472C3.67758 15.9917 3.80182 16.1126 3.95361 16.2065L4.21924 16.3706L4.49268 16.5347C4.92063 16.7996 5.25011 17.1724 5.47705 17.6206L5.62549 17.9019L5.74268 18.144C5.74838 18.148 5.75592 18.1536 5.76611 18.1597C5.83317 18.1998 5.96382 18.2602 6.18799 18.3159L6.7583 18.4565L7.10205 18.5425L7.31299 18.8159L7.37549 18.894C7.71206 19.3319 7.62586 19.9637 7.18799 20.3003C6.84005 20.5658 6.37726 20.5612 6.03174 20.3315L5.71143 20.2534C5.07667 20.096 4.33725 19.7899 3.98486 19.0972L3.83643 18.8081L3.6958 18.519C3.63252 18.3943 3.54889 18.3064 3.43799 18.2378L3.16455 18.0737L2.89893 17.9019C2.51272 17.6625 2.1869 17.3547 1.93018 16.98L1.75049 16.7222L1.5708 16.4565C1.28503 16.038 1.13113 15.5644 1.11768 15.0581L1.10986 14.7378L1.10205 14.4253C1.09582 14.1817 1.06371 13.9491 1.0083 13.7378L0.930176 13.4487L0.859863 13.1597C0.803254 12.9441 0.713999 12.7298 0.602051 12.5112L0.320801 11.9487C0.103461 11.5247 -0.00860087 11.0665 0.000488281 10.5894L0.00830078 10.2769L0.0161133 9.97217C0.0250121 9.50952 0.134504 9.06194 0.336426 8.64404L0.477051 8.34717L0.625488 8.05811C0.622839 8.04986 0.611824 8.03849 0.602051 8.01904L0.273926 7.37842C-0.014891 6.81145 -0.0625336 6.15949 0.258301 5.55029L0.414551 5.26904L0.562988 4.98779C0.673113 4.7784 0.754933 4.55677 0.812988 4.32373L0.969238 3.69873C1.11791 3.10125 1.49108 2.63928 2.02393 2.35498L2.3208 2.19873L2.60986 2.04248C2.86278 1.90766 3.08628 1.7701 3.27393 1.62842L3.74268 1.26904C4.05245 1.03494 4.39215 0.844321 4.7583 0.69873L5.04736 0.589355L5.33643 0.472168C5.68485 0.333856 6.05189 0.231727 6.43018 0.159668L7.0708 0.034668L7.57861 0.00341797Z" fill="currentColor"/>
  <path d="M11.4731 19.7847C11.7164 19.7639 11.952 19.8061 12.1724 19.9097L12.3169 19.9761L12.4614 20.0464C12.5698 20.0973 12.6764 20.134 12.7817 20.1558L12.9302 20.1831L13.0747 20.2144C13.2201 20.2444 13.3751 20.2763 13.5356 20.3081L13.6958 20.3394L13.8599 20.3706C14.1081 20.42 14.31 20.553 14.4458 20.7495L14.5591 20.9644L14.6177 21.1206L14.6724 21.2729C14.7719 21.5394 14.7797 21.8491 14.5942 22.1245L14.5161 22.2378L14.4419 22.3472C14.3612 22.4664 14.2683 22.5958 14.1646 22.7339L14.0669 22.8667L14.0317 22.9058L14.0356 22.9097C14.0402 22.9146 14.0493 22.9231 14.063 22.9331L14.2153 23.0425L14.3638 23.1558C14.4969 23.2529 14.6637 23.4208 14.6919 23.6792C14.7195 23.9382 14.5946 24.1418 14.4849 24.2651L14.3599 24.4058L14.2349 24.5425C14.0432 24.7576 13.7889 24.913 13.4771 24.9331L13.3247 24.9448L13.1685 24.9526C13.021 24.9621 12.8741 24.9776 12.7271 24.9917L12.5708 25.0034L12.4185 25.019C12.1318 25.0463 11.8676 24.9609 11.645 24.7886L11.3872 24.5933C11.2818 24.5117 11.188 24.453 11.106 24.4136L10.8638 24.2964C10.7486 24.241 10.5453 24.111 10.4888 23.8472C10.4333 23.5856 10.5622 23.3812 10.6411 23.2847L10.7271 23.1792L10.813 23.0776L10.8403 23.0503C10.8134 23.0389 10.7876 23.0252 10.7622 23.0151L10.5122 22.9136C10.2499 22.8093 10.0696 22.6098 9.95752 22.3745L9.88721 22.2339L9.8208 22.0894C9.78491 22.014 9.7561 21.9346 9.74268 21.8511L9.70752 21.9604L9.45361 22.0308L9.35596 22.0581C9.0904 22.1289 8.81513 21.9718 8.74268 21.7065C8.68769 21.5035 8.76806 21.2947 8.92627 21.1753L8.9458 21.1167C9.04801 20.8249 9.24154 20.4469 9.64502 20.3394L9.78955 20.3042L9.93799 20.2651C10.0458 20.2364 10.1522 20.1918 10.2583 20.1362L10.395 20.0659L10.5356 19.9917C10.7312 19.8896 10.9409 19.8273 11.1606 19.8081L11.4731 19.7847ZM12.8521 23.3354L13.1646 23.9487L13.2583 23.9448L13.4146 23.937C13.4172 23.9367 13.4206 23.936 13.4263 23.9331C13.4358 23.928 13.4584 23.9125 13.4888 23.8784L13.5552 23.8003L13.4731 23.7417C13.3345 23.6405 13.226 23.5129 13.1489 23.3667C13.1393 23.3658 13.1274 23.3679 13.1177 23.3667L12.9653 23.3472L12.8481 23.3315L12.8521 23.3354ZM10.8481 21.6323L10.7583 21.7378L10.7896 21.8042L10.8599 21.9448C10.8732 21.9728 10.8815 21.986 10.8833 21.9878V21.9839L11.1333 22.0854C11.2739 22.1412 11.4243 22.2098 11.5825 22.2886L11.8794 22.437C11.9287 22.4616 11.958 22.4595 11.9849 22.4526L12.1333 22.4136L12.2856 22.3745C12.4233 22.3393 12.5633 22.3245 12.7036 22.3237C12.566 22.2063 12.4398 22.0726 12.3325 21.9214L12.2349 21.7847L12.2114 21.7495L12.1411 21.7769L11.9692 21.8394C11.6485 21.9551 11.3232 21.9141 11.0396 21.73L10.8833 21.6284L10.8599 21.6128L10.8481 21.6323ZM13.1489 21.3433C13.221 21.4448 13.301 21.5284 13.3833 21.5933L13.5044 21.687L13.6177 21.7769L13.688 21.6753L13.731 21.6089L13.6802 21.4683L13.6294 21.3433L13.5044 21.3198L13.3403 21.2886C13.2481 21.2703 13.1583 21.2516 13.0708 21.2339L13.1489 21.3433ZM11.4224 20.7886L11.4263 20.7925L11.5825 20.8901C11.5938 20.8975 11.6025 20.9045 11.606 20.9058H11.6099C11.6124 20.9054 11.6186 20.9018 11.6294 20.8979L11.7935 20.8354L11.7466 20.8159C11.6824 20.7857 11.6234 20.7754 11.5591 20.7808L11.4224 20.7886Z" fill="currentColor"/>
</svg>
